<?xml version="1.0" encoding="iso-8859-1"?>
<!-- Uploaded to: SVG Repo, www.svgrepo.com, Generator: SVG Repo Mixer Tools -->
<svg fill="#000000" height="800px" width="800px" version="1.1" id="Layer_1" xmlns="http://www.w3.org/2000/svg" xmlns:xlink="http://www.w3.org/1999/xlink" 
	 viewBox="0 0 491.292 491.292" xml:space="preserve">
<g>
	<g>
		<path d="M484.416,164.617c-7-7-17.8-7.8-25.9-2.7l-59.9-59.9c18.6-40.9,18.7-71,1.2-88.6c-29.7-30.7-89.5-3.2-136.5,27.3
			c-44.8-34.4-138.4-56.9-209,13.3c-57.2,56.9-61.3,147.1-12.7,209c-31.2,48.2-57.7,106.8-28,136.5c19.9,22.3,58.1,13.1,88.3-0.5
			l59.6,59.6c-5.8,8.1-5.1,19.4,2.2,26.6c8.1,8.1,21.2,8.1,29.2,0l24.2-24.2c8.3-8.3,8.4-20.8,0.1-29.2c-7.1-7.2-18.3-7.9-26.4-2.4
			l-51-51c32.9-20.1,69-47.8,104.5-80.3l78.3,78.3c0.2,0.2,0.5,0.4,0.7,0.6c-5.7,8.1-5,19.3,2.2,26.6c8.1,8.1,21.2,8.1,29.2,0
			l24.2-24.2c8.3-8.3,8.4-20.8,0.1-29.2c-7.2-7.2-18.4-7.9-26.5-2.3c-0.2-0.2-0.4-0.5-0.7-0.7l-77.8-77.8
			c43-43.3,79.3-88.9,104.1-129.7l51,51c-6.2,8.1-5.6,19.7,1.8,27.1c8.1,8.1,21.2,8.1,29.2,0l24.2-24.2
			C492.716,185.516,492.716,173.016,484.416,164.617z M81.416,83.317c45.3-42.9,113.8-49,167,0c7.3,7.3,1,26.1-2.1,33.4
			c-19.3,47.1-80,106.4-124.7,127.6c-10.8,5.1-32,12.1-39.2,4.9C36.516,203.317,36.516,129.216,81.416,83.317z M351.816,105.216
			c-24,41.8-62.7,90.8-108.6,136.8c-45.9,47-95,85.6-136.8,108.6c-43.8,25.1-61.6,21.9-63.7,19.8c-3.8-2.8-2.4-29.7,29.8-80.7
			c6.2,2.3,13,3.4,20.3,3.4c62.6,0,162.8-91.9,191-160.8c11.4-26.9,10.3-46.1,5-59.9c52.8-33.2,78.9-34.8,82.8-30.9
			C373.716,42.516,376.816,60.316,351.816,105.216z"/>
	</g>
</g>
</svg>